<svg viewBox = '0 0 1320 1320'>
<style type="text/css">
  svg { 
    font-family: sans-serif;
    font-size: 70px; 
    text-anchor: middle; 
    fill: #222222;
  }
</style>
<polygon points="660,460 801.42,518.58 860,660 801.42,801.42 660,860 518.58,801.42 460,660 518.58,518.58" fill="black" />
    <text x="660" y="600" fill="white" font-size="80px">Original</text>
    <text x="660" y="700" fill="white" font-size="80px">Pride</text>
    <text x="660" y="800" fill="white" font-size="80px">Flag</text>
<g transform="rotate(90, 660, 260)">
<path d="M 460 260
A 200 200 0 0 1 860 260
L 460 260
Z" 
fill="#FF66B1" fill-opacity="0.8" /></g>
    <circle cx="660" cy="260" r="200" fill="#FF66B1" fill-opacity="0.8" />
    <circle cx="942.84" cy="377.16" r="200" fill="#FF0000" fill-opacity="0.8" />
    <circle cx="1060" cy="660" r="200" fill="#FF8F1A" fill-opacity="0.8" />
    <circle cx="942.84" cy="942.84" r="200" fill="#FEFF3A" fill-opacity="0.8" />
    <circle cx="660" cy="1060" r="200" fill="#008F1D" fill-opacity="0.8" />
    <circle cx="377.16" cy="942.84" r="200" fill="#00C0C0" fill-opacity="0.8" />
    <circle cx="260" cy="660" r="200" fill="#420095" fill-opacity="0.8" />
    <circle cx="377.16" cy="377.16" r="200" fill="#8F008B" fill-opacity="0.8" />
<g transform="rotate(-90, 660, 260)">
<path d="M 460 260
A 200 200 0 0 1 860 260
L 460 260
Z" 
fill="#FF66B1" fill-opacity="0.8" /></g>
    <text x="660" y="295">Sex</text>
    <text x="942.84" y="412.16">Life</text>
    <text x="1060" y="695">Healing</text>
    <text x="942.84" y="977.84">Sunlight</text>
    <text x="660" y="1095">Nature</text>
    <text x="377.16" y="977.84">Magic/Art</text>
    <text x="260" y="695">Serenity</text>
    <text x="377.16" y="412.16">Spirit</text>
</svg>
